<svg xmlns="http://www.w3.org/2000/svg" width="100" height="100" viewBox="0 0 100 100"><g transform="translate(2.041 2.041)"><path d="M89.8,129.592A39.8,39.8,0,1,1,89.8,50V90.816L105.1,106.122l4.082,3.061,8.755,8.755A39.686,39.686,0,0,1,89.8,129.592Z" transform="translate(-41.837 -41.837)" fill="#fff"/><path d="M284.8,89.8a39.685,39.685,0,0,1-11.653,28.143l-8.755-8.755-4.082-3.061L245,90.816V50A39.8,39.8,0,0,1,284.8,89.8Z" transform="translate(-197.041 -41.837)" fill="#fe0000"/><path d="M86.1,86.1A39.773,39.773,0,1,0,57.959,97.755,39.685,39.685,0,0,0,86.1,86.1ZM57.959,10A47.959,47.959,0,1,1,10,57.959,47.954,47.954,0,0,1,57.959,10Z" transform="translate(-10 -10)" fill="#afb6bb"/></g><path d="M85.357,14.643A50,50,0,0,0,14.644,85.357,50,50,0,0,0,85.357,14.643ZM82.47,82.47A45.92,45.92,0,0,1,17.53,17.53,45.92,45.92,0,0,1,82.47,82.47Z" fill="#231f20"/><path d="M81.837,40a41.841,41.841,0,1,0,41.837,41.837A41.543,41.543,0,0,0,81.837,40ZM56.1,109.44l6.772-6.772-2.886-2.886L53.268,106.5a37.4,37.4,0,0,1-9.131-22.621H54.286V79.8H44.138A37.566,37.566,0,0,1,52.79,57.718l7.2,7.195,2.886-2.886L55.564,54.72A37.589,37.589,0,0,1,79.8,44.136v10.15h4.082V44.137a37.619,37.619,0,0,1,23.693,10.1l-7.789,7.789,2.886,2.886,7.736-7.736A37.6,37.6,0,0,1,119.536,79.8H109.388v4.082h10.149a37.441,37.441,0,0,1-9.6,23.177l-7.273-7.273-2.886,2.886,7.273,7.273a37.44,37.44,0,0,1-23.177,9.6V109.388H79.8v10.149A37.284,37.284,0,0,1,56.1,109.44Z" transform="translate(-31.837 -31.837)" fill="#231f20"/><path d="M250.9,175.219l2.886-2.886-14.709-14.708V135H235v23.469a2.041,2.041,0,0,0,.6,1.443Z" transform="translate(-187.041 -107.449)" fill="#231f20"/></svg>