<svg xmlns="http://www.w3.org/2000/svg" width="20" height="20" viewBox="0 0 20 20"><g transform="translate(-16 -16)"><path d="M34.333,17.333h-2V17a1,1,0,1,0-2,0v.333H27V17a1,1,0,0,0-2,0v.333H21.667V17a1,1,0,0,0-2,0v.333h-2A1.669,1.669,0,0,0,16,19V34.333A1.669,1.669,0,0,0,17.667,36H34.333A1.669,1.669,0,0,0,36,34.333V19A1.669,1.669,0,0,0,34.333,17.333ZM31,17a.333.333,0,1,1,.667,0v2A.333.333,0,1,1,31,19Zm-5.333,0a.333.333,0,1,1,.667,0v2a.333.333,0,0,1-.667,0Zm-5.333,0A.333.333,0,1,1,21,17v2a.333.333,0,0,1-.667,0Zm-2.667,1h2v1a1,1,0,0,0,2,0V18H25v1a1,1,0,0,0,2,0V18h3.333v1a1,1,0,1,0,2,0V18h2a1,1,0,0,1,1,1v2.333H16.667V19A1,1,0,0,1,17.667,18ZM34.333,35.333H17.667a1,1,0,0,1-1-1V22H35.333V34.333A1,1,0,0,1,34.333,35.333Z"/><path d="M401.667,216h-1.333a.333.333,0,0,0-.333.333v1.333a.333.333,0,0,0,.333.333h1.333a.333.333,0,0,0,.333-.333v-1.333A.333.333,0,0,0,401.667,216Zm-.333,1.333h-.667v-.667h.667Z" transform="translate(-368 -191.667)"/><path d="M241.667,376h-1.333a.333.333,0,0,0-.333.333v1.333a.333.333,0,0,0,.333.333h1.333a.333.333,0,0,0,.333-.333v-1.333A.333.333,0,0,0,241.667,376Zm-.333,1.333h-.667v-.667h.667Z" transform="translate(-214.667 -345)"/><path d="M161.667,216h-1.333a.333.333,0,0,0-.333.333v1.333a.333.333,0,0,0,.333.333h1.333a.333.333,0,0,0,.333-.333v-1.333A.333.333,0,0,0,161.667,216Zm-.333,1.333h-.667v-.667h.667Z" transform="translate(-138 -191.667)"/><path d="M81.667,296H80.333a.333.333,0,0,0-.333.333v1.333a.333.333,0,0,0,.333.333h1.333a.333.333,0,0,0,.333-.333v-1.333A.333.333,0,0,0,81.667,296Zm-.333,1.333h-.667v-.667h.667Z" transform="translate(-61.333 -268.333)"/><path d="M161.667,296h-1.333a.333.333,0,0,0-.333.333v1.333a.333.333,0,0,0,.333.333h1.333a.333.333,0,0,0,.333-.333v-1.333A.333.333,0,0,0,161.667,296Zm-.333,1.333h-.667v-.667h.667Z" transform="translate(-138 -268.333)"/><path d="M81.667,376H80.333a.333.333,0,0,0-.333.333v1.333a.333.333,0,0,0,.333.333h1.333a.333.333,0,0,0,.333-.333v-1.333A.333.333,0,0,0,81.667,376Zm-.333,1.333h-.667v-.667h.667Z" transform="translate(-61.333 -345)"/><path d="M161.667,376h-1.333a.333.333,0,0,0-.333.333v1.333a.333.333,0,0,0,.333.333h1.333a.333.333,0,0,0,.333-.333v-1.333A.333.333,0,0,0,161.667,376Zm-.333,1.333h-.667v-.667h.667Z" transform="translate(-138 -345)"/><path d="M237.72,202.04l-1.667-.255-.749-1.595a.333.333,0,0,0-.6,0l-.748,1.595-1.667.255a.333.333,0,0,0-.188.563l1.216,1.246-.288,1.764a.333.333,0,0,0,.49.345l1.487-.822,1.487.822a.333.333,0,0,0,.49-.345l-.288-1.764,1.216-1.246a.333.333,0,0,0-.188-.562ZM236.1,203.5a.333.333,0,0,0-.09.286l.2,1.252-1.047-.579a.333.333,0,0,0-.322,0l-1.047.579.2-1.252a.333.333,0,0,0-.09-.286l-.88-.9,1.2-.183a.333.333,0,0,0,.251-.188l.522-1.113.522,1.113a.333.333,0,0,0,.251.188l1.2.183Z" transform="translate(-207.003 -176.332)"/><path d="M401.667,296h-1.333a.333.333,0,0,0-.333.333v1.333a.333.333,0,0,0,.333.333h1.333a.333.333,0,0,0,.333-.333v-1.333A.333.333,0,0,0,401.667,296Zm-.333,1.333h-.667v-.667h.667Z" transform="translate(-368 -268.333)"/><path d="M401.667,376h-1.333a.333.333,0,0,0-.333.333v1.333a.333.333,0,0,0,.333.333h1.333a.333.333,0,0,0,.333-.333v-1.333A.333.333,0,0,0,401.667,376Zm-.333,1.333h-.667v-.667h.667Z" transform="translate(-368 -345)"/><path d="M321.667,376h-1.333a.333.333,0,0,0-.333.333v1.333a.333.333,0,0,0,.333.333h1.333a.333.333,0,0,0,.333-.333v-1.333A.333.333,0,0,0,321.667,376Zm-.333,1.333h-.667v-.667h.667Z" transform="translate(-291.333 -345)"/></g></svg>