<svg xmlns="http://www.w3.org/2000/svg" width="86.463" height="100" viewBox="0 0 86.463 100"><g transform="translate(-32.878)"><g transform="translate(32.878)"><g transform="translate(8.235 2.058)"><path d="M139.64,183.686s-8.914,17.848-26.762,0C130.726,165.858,139.64,183.686,139.64,183.686Z" transform="translate(-104.643 -141.637)" fill="#23a24d"/><path d="M242.878,233.652s8.914-17.848,26.762,0C251.792,251.5,242.878,233.652,242.878,233.652Z" transform="translate(-207.881 -181.31)" fill="#23a24d"/><path d="M242.878,20.366s11.672-23.325,35,0C254.55,43.71,242.878,20.366,242.878,20.366Z" transform="translate(-207.881 -9.999)" fill="#43b05c"/><path d="M107.875,20.366s-11.672,23.345-35,0C96.2-2.959,107.875,20.366,107.875,20.366Z" transform="translate(-72.878 -9.999)" fill="#43b05c"/><path d="M184.051,396.343H142.878a20.587,20.587,0,1,1,41.173,0Z" transform="translate(-128.467 -300.459)" fill="#a58763"/></g><g transform="translate(0)"><rect width="4.117" height="4.117" transform="translate(31.909 89.707)" fill="#231f20"/><rect width="4.117" height="4.117" transform="translate(36.026 83.531)" fill="#231f20"/><rect width="4.117" height="4.117" transform="translate(42.202 89.707)" fill="#231f20"/><rect width="4.117" height="4.117" transform="translate(46.32 83.531)" fill="#231f20"/><rect width="4.117" height="4.117" transform="translate(50.437 89.707)" fill="#231f20"/><path d="M98.66,95.883A22.683,22.683,0,0,0,78.168,75.391V60.352A14.329,14.329,0,0,0,88,64.392c5.17,0,10.663-2.872,16.327-8.536a2.059,2.059,0,0,0,0-2.912C98.664,47.281,93.171,44.409,88,44.409a14.33,14.33,0,0,0-9.833,4.041V18.7a18.561,18.561,0,0,0,13.5,6.161h0c6.585,0,13.616-3.694,20.894-10.979a2.059,2.059,0,0,0,0-2.911C105.284,3.691,98.253,0,91.667,0,83.774,0,78.636,5.188,76.11,8.6,73.583,5.188,68.445,0,60.552,0c-6.586,0-13.617,3.691-20.9,10.969a2.059,2.059,0,0,0,0,2.911c7.279,7.285,14.309,10.979,20.9,10.979a18.558,18.558,0,0,0,13.5-6.16V38.161a14.337,14.337,0,0,0-9.833-4.036c-5.169,0-10.662,2.869-16.326,8.526a2.059,2.059,0,0,0,0,2.912C53.555,51.226,59.048,54.1,64.218,54.1a14.33,14.33,0,0,0,9.833-4.041V75.391A22.683,22.683,0,0,0,53.559,95.883H32.878V100h86.463V95.883H98.66ZM88,48.526c3.613,0,7.607,1.974,11.892,5.874C95.608,58.3,91.614,60.274,88,60.274a10.823,10.823,0,0,1-7.884-3.815h14.83V52.342H80.118A10.822,10.822,0,0,1,88,48.526ZM91.667,4.117c5.03,0,10.567,2.794,16.479,8.308-5.912,5.52-11.448,8.316-16.477,8.316h0c-5.573,0-9.511-3.559-11.7-6.258h20.761V10.366H79.972C82.16,7.668,86.1,4.117,91.667,4.117ZM60.552,20.742c-5.03,0-10.567-2.8-16.479-8.316,5.912-5.515,11.449-8.309,16.479-8.309,5.572,0,9.509,3.552,11.7,6.249H51.488v4.117H72.265C70.091,17.184,66.162,20.742,60.552,20.742Zm3.666,29.239c-3.613,0-7.606-1.974-11.891-5.873,4.284-3.894,8.278-5.866,11.891-5.866a10.826,10.826,0,0,1,7.88,3.806H57.272v4.117H72.1A10.822,10.822,0,0,1,64.218,49.981ZM76.11,79.414A18.554,18.554,0,0,1,94.522,95.883H57.7A18.554,18.554,0,0,1,76.11,79.414Z" transform="translate(-32.878)" fill="#231f20"/></g></g></g></svg>