<svg xmlns="http://www.w3.org/2000/svg" width="7.001" height="12.002" viewBox="0 0 7.001 12.002"><g transform="translate(-28.4 -10.1)"><path d="M30.349,16.873H28.741c-.26,0-.341-.09-.341-.315V14.741c0-.24.1-.315.341-.315h1.608V13.1a3.135,3.135,0,0,1,.439-1.7,2.656,2.656,0,0,1,1.445-1.1,3.88,3.88,0,0,1,1.251-.2h1.592c.227,0,.325.09.325.3v1.712c0,.21-.1.3-.325.3-.439,0-.877,0-1.316.015-.439,0-.666.2-.666.616-.016.451,0,.886,0,1.352h1.884c.26,0,.357.09.357.33v1.817c0,.24-.081.315-.357.315H33.094v4.9c0,.255-.081.345-.374.345H30.69c-.244,0-.341-.09-.341-.315Z" fill="#fff"/></g></svg>