<svg xmlns="http://www.w3.org/2000/svg" width="20" height="20" viewBox="0 0 20 20">
  <path id="info" d="M12.086,15.859a.508.508,0,0,1-.508.508H8.422a.508.508,0,1,1,0-1.016h1.07L9.467,7.029H8.422a.508.508,0,1,1,0-1.016H9.974a.508.508,0,0,1,.508.506l.026,8.832h1.071A.508.508,0,0,1,12.086,15.859ZM9.982,4.648h.036a.508.508,0,1,0,0-1.016H9.982a.508.508,0,1,0,0,1.016ZM20,3.457V16.543A3.461,3.461,0,0,1,16.543,20H3.457A3.461,3.461,0,0,1,0,16.543V3.457A3.461,3.461,0,0,1,3.457,0H16.543A3.461,3.461,0,0,1,20,3.457Zm-1.016,0a2.444,2.444,0,0,0-2.441-2.441H3.457A2.444,2.444,0,0,0,1.016,3.457V16.543a2.444,2.444,0,0,0,2.441,2.441H16.543a2.444,2.444,0,0,0,2.441-2.441Z" fill="#fe0000"/>
</svg>
