<svg xmlns="http://www.w3.org/2000/svg" width="12" height="12" viewBox="0 0 12 12"><g transform="translate(0.005)"><path d="M9,0H3A3.009,3.009,0,0,0,0,3V9a3.009,3.009,0,0,0,3,3H9a3.009,3.009,0,0,0,3-3V3A3.009,3.009,0,0,0,9,0Zm2,9a2,2,0,0,1-2,2H3A2,2,0,0,1,1,9V3A2,2,0,0,1,3,1H9a2,2,0,0,1,2,2Z" transform="translate(-0.005)" fill="#fff"/></g><g transform="translate(8.505 2)"><circle cx="0.75" cy="0.75" r="0.75" fill="#fff"/></g><g transform="translate(3.005 3)"><path d="M105.4,102.4a3,3,0,1,0,3,3,3,3,0,0,0-3-3Zm0,5a2,2,0,1,1,2-2A2,2,0,0,1,105.4,107.4Z" transform="translate(-102.405 -102.4)" fill="#fff"/></g></svg>