<svg xmlns="http://www.w3.org/2000/svg" width="24" height="16" viewBox="0 0 24 16"><g transform="translate(0 -85.333)"><g transform="translate(0 85.333)"><g transform="translate(0 0)"><path d="M22.769,85.333H1.231A1.234,1.234,0,0,0,0,86.564V100.1a1.234,1.234,0,0,0,1.231,1.231H22.769A1.234,1.234,0,0,0,24,100.1V86.564A1.234,1.234,0,0,0,22.769,85.333Zm-.462.923-9.6,7.2a1.287,1.287,0,0,1-1.416,0l-9.6-7.2ZM17.18,93.931l5.231,6.462c.005.006.012.011.017.017H1.572c.006-.006.012-.011.017-.017L6.82,93.931A.462.462,0,0,0,6.1,93.35l-5.18,6.4V86.833l9.815,7.362a2.2,2.2,0,0,0,2.523,0l9.815-7.362V99.749l-5.18-6.4a.462.462,0,0,0-.718.581Z" transform="translate(0 -85.333)" fill="#fe0000"/></g></g></g></svg>