<svg xmlns="http://www.w3.org/2000/svg" width="88.738" height="100" viewBox="0 0 88.738 100"><g transform="translate(-27.319)"><g transform="translate(34.459 2.061)"><path d="M258.455,272.26l18.359,26.519h-9.18v15.3H249.275v-15.3H240.1l9.18-13.26Z" transform="translate(-203.376 -218.201)" fill="#afb6bb"/><path d="M169.386,10l18.36,26.519h-9.18v40.8l-9.18,13.26h9.18v15.3h-18.36V71.2h9.18l-9.18-13.26V36.519h-9.18Z" transform="translate(-132.666 -10)" fill="#fe0000"/><path d="M89.5,191.5l9.18,13.26H89.5V239.44H71.137V204.761h-9.18l18.36-26.519Z" transform="translate(-61.957 -143.563)" fill="#ffd248"/></g><g transform="translate(27.319)"><path d="M104.707,84.7h7.119a2.061,2.061,0,0,0,1.695-3.235L95.161,54.947a2.061,2.061,0,0,0-3.39,0l-5.424,7.834V30.642h7.118a2.061,2.061,0,0,0,1.695-3.235L76.8.888a2.061,2.061,0,0,0-3.389,0L55.053,27.407a2.061,2.061,0,0,0,1.695,3.235h7.118V43.4l-5.424-7.834a2.061,2.061,0,0,0-3.39,0L36.693,62.086a2.061,2.061,0,0,0,1.695,3.235h7.119V95.877H32.268V100h85.678V95.877H104.707ZM93.466,59.741l14.425,20.837h-5.246a2.061,2.061,0,0,0-2.061,2.061V95.878H86.348V82.639a2.061,2.061,0,0,0-2.061-2.061H79.041ZM65.927,26.519H60.681L75.107,5.683,89.532,26.519H84.287a2.061,2.061,0,0,0-2.061,2.061V68.736l-8.813,12.73A2.061,2.061,0,0,0,75.107,84.7h7.119V95.878H67.988V65.321h7.118A2.061,2.061,0,0,0,76.8,62.086l-8.813-12.73V28.581A2.061,2.061,0,0,0,65.927,26.519ZM47.568,61.2H42.322L56.747,40.362,71.173,61.2H65.927a2.061,2.061,0,0,0-2.061,2.061V95.878H49.629V63.26A2.061,2.061,0,0,0,47.568,61.2Z" transform="translate(-31.248)" fill="#231f20"/><path d="M334.112,181.28V185.4h3.039v3.039h4.123V185.4h3.039V181.28h-3.039v-3.038h-4.123v3.038Z" transform="translate(-270.874 -141.502)" fill="#231f20"/><path d="M356.944,59.786h4.123V56.747H364.1V52.625h-3.039V49.586h-4.123v3.039H353.9v4.123h3.039Z" transform="translate(-286.587 -39.365)" fill="#231f20"/><path d="M114.479,30.1H118.6V27.057h3.039V22.935H118.6V19.9h-4.123v3.039H111.44v4.123h3.039Z" transform="translate(-94.1 -15.795)" fill="#231f20"/><path d="M35.307,158.753h4.123v-3.039h3.039v-4.123H39.429v-3.038H35.307v3.038H32.268v4.123h3.039Z" transform="translate(-31.248 -117.932)" fill="#231f20"/><path d="M30.358,366.579H34.48V363.54h3.039v-4.123H34.48v-3.039H30.358v3.039H27.319v4.123h3.039Z" transform="translate(-27.319 -282.92)" fill="#231f20"/><path d="M415.5,275.3V272.26h-4.123V275.3h-3.039v4.123h3.039v3.039H415.5v-3.039h3.039V275.3Z" transform="translate(-329.799 -216.14)" fill="#231f20"/></g></g></svg>