<svg xmlns="http://www.w3.org/2000/svg" width="32" height="32" viewBox="0 0 32 32"><g transform="translate(-2 -2.111)"><path d="M28.253,34.111c3.048,0,5.1-2.144,5.71-5.891a3.645,3.645,0,0,0-.729-2.749l-.117-.109-4.427-3.5a3.647,3.647,0,0,0-4.587.175l-1.911,1.808c-3.982-.9-9.7-6.066-9.984-9.872l1.889-1.99a3.645,3.645,0,0,0,.139-4.572L10.751,3a.532.532,0,0,0-.131-.124,3.647,3.647,0,0,0-2.742-.729C4.144,2.759,2,4.815,2,7.863A26.251,26.251,0,0,0,28.253,34.111ZM8.111,3.6a2.268,2.268,0,0,1,.314,0A2.188,2.188,0,0,1,9.679,4l3.406,4.3a2.187,2.187,0,0,1-.066,2.712L10.948,13.2a.729.729,0,0,0-.2.5c0,4.7,6.775,10.864,11.552,11.666a.729.729,0,0,0,.62-.19l2.188-2.049a2.188,2.188,0,0,1,2.72-.095l4.339,3.412a2.129,2.129,0,0,1,.379,1.568c-.357,2.114-1.378,4.644-4.3,4.644A24.792,24.792,0,0,1,3.459,7.863C3.459,4.947,5.989,3.926,8.111,3.6Z" transform="translate(0)" fill="#fe0000"/></g></svg>