<svg xmlns="http://www.w3.org/2000/svg" width="15" height="20" viewBox="0 0 15 20"><g transform="translate(-61)"><g transform="translate(61)"><path d="M68.5,0A7.568,7.568,0,0,0,61,7.617c0,2.711.812,3.8,4.715,9.024.677.907,1.445,1.935,2.324,3.125a.572.572,0,0,0,.923,0c.873-1.183,1.638-2.207,2.312-3.111C75.186,11.414,76,10.324,76,7.617A7.568,7.568,0,0,0,68.5,0Zm1.855,15.947c-.554.742-1.169,1.565-1.855,2.492-.691-.932-1.309-1.76-1.866-2.506-3.8-5.082-4.48-6-4.48-8.316a6.347,6.347,0,1,1,12.692,0C74.846,9.93,74.16,10.849,70.355,15.947Z" transform="translate(-61)" fill="#fe0000"/></g><g transform="translate(64.462 3.516)"><path d="M155.038,90a4.1,4.1,0,1,0,4.038,4.1A4.075,4.075,0,0,0,155.038,90Zm0,7.031a2.93,2.93,0,1,1,2.885-2.93A2.911,2.911,0,0,1,155.038,97.031Z" transform="translate(-151 -90)" fill="#fe0000"/></g></g></svg>