<svg xmlns="http://www.w3.org/2000/svg" width="83.673" height="100" viewBox="0 0 83.673 100"><g transform="translate(-40)"><g transform="translate(40)"><g transform="translate(14.286 2.041)"><rect width="10.204" height="36.735" transform="translate(22.449 38.776)" fill="#fe0000"/><rect width="34.694" height="13.265" transform="translate(10.204 82.653)" fill="#e7eced"/><path d="M173.98,384.082v16.327h-7.143V387.143H132.143v13.265H125V384.082A4.1,4.1,0,0,1,129.082,380H169.9A4.1,4.1,0,0,1,173.98,384.082Z" transform="translate(-121.939 -304.49)" fill="#afb6bb"/><path d="M165.1,44.694a4.1,4.1,0,0,1-4.082,4.082H114.082A4.1,4.1,0,0,1,110,44.694V10h55.1Z" transform="translate(-110 -10)" fill="#ffd248"/></g><g transform="translate(0)"><rect width="16.327" height="4.082" transform="translate(33.673 89.796)" fill="#231f20"/><path d="M139.082,39.082h4.082V35h-6.122A2.041,2.041,0,0,0,135,37.041v7.143h4.082Z" transform="translate(-115.612 -27.857)" fill="#231f20"/><rect width="4.082" height="4.082" transform="translate(19.388 19.388)" fill="#231f20"/><path d="M121.633,0H42.041A2.041,2.041,0,0,0,40,2.041V23.469a2.008,2.008,0,0,0,.021.289,9.316,9.316,0,0,0,2.438,4.672c2.664,2.869,6.5,3.874,9.786,4.142v4.163a6.129,6.129,0,0,0,6.122,6.122H74.694V75.51H61.429a6.129,6.129,0,0,0-6.122,6.122V95.918H50.2V100h63.265V95.918h-5.1V81.633a6.129,6.129,0,0,0-6.122-6.122H88.98V42.857h16.327a6.129,6.129,0,0,0,6.122-6.122V32.571c3.285-.267,7.122-1.273,9.786-4.142a9.315,9.315,0,0,0,2.438-4.672,2.038,2.038,0,0,0,.021-.289V2.041A2.041,2.041,0,0,0,121.633,0ZM45.609,25.818a5.719,5.719,0,0,1-1.527-2.553V4.082h8.163V28.476A10.618,10.618,0,0,1,45.609,25.818Zm51.534,70.1H66.531V86.735H97.143Zm7.143-14.286V95.918h-3.061V84.694a2.041,2.041,0,0,0-2.041-2.041H64.49a2.041,2.041,0,0,0-2.041,2.041V95.918H59.388V81.633a2.043,2.043,0,0,1,2.041-2.041h40.816A2.043,2.043,0,0,1,104.286,81.633ZM78.776,75.51V42.857H84.9V75.51Zm28.571-38.776a2.043,2.043,0,0,1-2.041,2.041H58.367a2.043,2.043,0,0,1-2.041-2.041V4.082h51.02Zm12.245-13.47a5.721,5.721,0,0,1-1.527,2.553,10.617,10.617,0,0,1-6.636,2.658V4.082h8.163Z" transform="translate(-40)" fill="#231f20"/></g></g></g></svg>