<svg xmlns="http://www.w3.org/2000/svg" width="12" height="9.01" viewBox="0 0 12 9.01"><path d="M21.9,18.565a5.384,5.384,0,0,1-1.41.359,2.253,2.253,0,0,0,1.08-1.258,5.454,5.454,0,0,1-1.56.553,2.571,2.571,0,0,0-1.8-.719,2.371,2.371,0,0,0-2.46,2.267,1.918,1.918,0,0,0,.06.512,7.135,7.135,0,0,1-5.055-2.364,2.177,2.177,0,0,0,.75,3.028,2.518,2.518,0,0,1-1.11-.276A2.344,2.344,0,0,0,12.36,22.92a2.923,2.923,0,0,1-1.11.041,2.453,2.453,0,0,0,2.3,1.576,5.256,5.256,0,0,1-3.645.94A7.373,7.373,0,0,0,13.68,26.5a6.665,6.665,0,0,0,6.99-6.442,1.884,1.884,0,0,0-.015-.29A4.682,4.682,0,0,0,21.9,18.565Z" transform="translate(-9.9 -17.498)" fill="#fff"/></svg>