<svg xmlns="http://www.w3.org/2000/svg" width="31.996" height="32" viewBox="0 0 31.996 32"><g transform="translate(-0.035)"><g transform="translate(7.399 7.368)"><path d="M134.264,129.467l-2.455-1.878a2.114,2.114,0,0,0-2.773.183l-.959.959a4.958,4.958,0,0,1-1.992-1.014l-.084-.071a5.258,5.258,0,0,1-.644-.645l-.068-.081a4.955,4.955,0,0,1-1.014-1.994l.959-.959a2.114,2.114,0,0,0,.185-2.771l-1.878-2.452a2.2,2.2,0,0,0-2.641-.681l-.279.125a4.618,4.618,0,0,0-2.755,4.121,12.25,12.25,0,0,0,2.868,8.131l.125.146a12.8,12.8,0,0,0,1.562,1.563l.146.125a12.27,12.27,0,0,0,7.88,2.871h.256a4.618,4.618,0,0,0,4.12-2.76l.125-.279A2.2,2.2,0,0,0,134.264,129.467Zm-.808,1.989h0l-.125.279a2.988,2.988,0,0,1-2.666,1.783h-.223a10.643,10.643,0,0,1-6.833-2.487l-.146-.125a11.183,11.183,0,0,1-1.364-1.364l-.125-.146a10.625,10.625,0,0,1-2.487-7.057,2.988,2.988,0,0,1,1.782-2.666l.279-.125a.583.583,0,0,1,.7.186l1.878,2.452a.484.484,0,0,1-.042.636l-1.268,1.268a.812.812,0,0,0-.228.7,6.584,6.584,0,0,0,1.457,3.175l.068.081a6.875,6.875,0,0,0,.842.842l.084.071a6.586,6.586,0,0,0,3.173,1.455.813.813,0,0,0,.706-.228l1.268-1.268a.485.485,0,0,1,.636-.042l2.455,1.883A.583.583,0,0,1,133.456,131.456Z" transform="translate(-117.863 -117.878)" fill="#fe0000"/></g><g transform="translate(0.035 0)"><g transform="translate(0 0)"><path d="M27.346,4.688a16,16,0,0,0-27.2,9.428A16.1,16.1,0,0,0,2.1,23.875L.752,28.523A2.224,2.224,0,0,0,3.509,31.28l4.649-1.349A16,16,0,0,0,27.346,4.688ZM26.2,26.165a14.224,14.224,0,0,1-8.471,4.111,14.454,14.454,0,0,1-9.047-1.92.813.813,0,0,0-.642-.082L3.056,29.72a.6.6,0,0,1-.742-.743L3.76,24a.813.813,0,0,0-.082-.642A14.377,14.377,0,1,1,26.2,26.165Z" transform="translate(-0.035 0)" fill="#fe0000"/></g></g></g></svg>